<?xml version="1.0" standalone="no"?>
<!DOCTYPE svg PUBLIC "-//W3C//DTD SVG 20010904//EN"
 "http://www.w3.org/TR/2001/REC-SVG-20010904/DTD/svg10.dtd">
<svg version="1.0" xmlns="http://www.w3.org/2000/svg"
 width="3000.000000pt" height="3000.000000pt" viewBox="0 0 3000.000000 3000.000000"
 preserveAspectRatio="xMidYMid meet">
<metadata>
Created by potrace 1.14, written by Peter Selinger 2001-2017
</metadata>
<g transform="translate(0.000000,3000.000000) scale(0.100000,-0.100000)"
fill="#000000" stroke="none">
<path d="M8648 27185 c-1 -1 -57 -6 -123 -10 -66 -3 -133 -8 -150 -10 -16 -2
-61 -7 -100 -11 -38 -3 -81 -8 -95 -9 -14 -2 -47 -6 -74 -9 -75 -8 -273 -38
-332 -50 -12 -2 -37 -7 -55 -10 -30 -5 -200 -43 -299 -66 -624 -151 -1218
-433 -1694 -804 -202 -157 -440 -388 -626 -606 -12 -14 -31 -36 -43 -50 -27
-31 -254 -315 -284 -356 -144 -194 -335 -472 -452 -657 -52 -81 -96 -146 -98
-144 -2 2 -4 543 -4 1201 l0 1196 -2104 0 c-1673 0 -2104 -3 -2107 -12 -2 -7
-3 -3728 -3 -8268 l1 -8255 1610 -3 1610 -2 0 -1523 0 -1522 1495 -5 1494 -5
0 -2190 1 -2190 2197 -3 2197 -2 0 3720 0 3720 1150 0 1150 0 0 -1525 0 -1525
1498 0 1497 0 -2 -2195 -1 -2195 2182 0 2182 0 0 3718 0 3717 1135 3 1135 2 0
-1522 0 -1523 1495 -3 1495 -2 -1 -2183 c0 -1200 1 -2188 3 -2194 3 -10 457
-13 2222 -13 l2219 0 1 753 c1 413 3 1276 5 1917 24 7870 24 8471 0 8905 -2
39 -6 125 -10 192 -7 142 -13 228 -19 298 -3 28 -8 86 -11 130 -3 44 -8 96
-11 115 -5 45 -11 98 -19 180 -4 36 -9 72 -10 81 -2 9 -6 40 -10 70 -5 47 -32
208 -50 304 -10 56 -47 220 -62 275 -8 30 -16 62 -18 71 -28 128 -176 562
-237 699 -12 25 -34 74 -50 110 -38 85 -143 293 -172 339 -12 20 -33 57 -46
84 -14 26 -28 47 -32 47 -5 0 -8 5 -8 11 0 27 -230 351 -350 493 -239 283
-430 477 -725 735 -49 43 -273 213 -361 274 -200 138 -524 316 -731 402 -83
34 -93 41 -94 64 0 14 -2 33 -4 41 -1 9 -5 48 -9 88 -25 276 -85 671 -127 827
-6 22 -13 51 -16 64 -12 68 -97 357 -151 511 -37 107 -141 371 -162 408 -5 9
-39 77 -75 150 -210 428 -490 812 -881 1207 -144 145 -285 276 -389 362 -78
63 -232 184 -261 203 -12 8 -73 49 -136 91 -346 233 -704 402 -1166 550 -70
23 -130 44 -134 48 -4 3 -22 49 -41 101 -144 402 -360 805 -609 1137 -242 323
-588 686 -878 923 -30 25 -57 47 -60 51 -3 3 -50 39 -105 80 -55 41 -102 76
-105 79 -14 14 -248 166 -340 220 -434 256 -1118 499 -1675 595 -49 9 -101 18
-115 21 -41 8 -300 42 -365 48 -33 3 -98 9 -145 13 -174 16 -923 7 -1021 -12
-10 -2 -51 -6 -91 -9 -104 -9 -250 -27 -368 -46 -30 -5 -71 -11 -90 -14 -359
-54 -934 -210 -1240 -336 -25 -10 -85 -35 -135 -55 -423 -174 -752 -365 -1110
-646 -103 -81 -115 -91 -225 -187 -88 -77 -380 -370 -460 -462 -36 -41 -79
-90 -96 -110 -174 -201 -438 -574 -606 -857 -24 -40 -45 -73 -49 -73 -3 0 -20
37 -38 83 -19 45 -73 163 -120 262 -247 512 -554 950 -926 1320 -253 252 -342
326 -560 460 -164 102 -458 249 -640 320 -185 73 -477 166 -595 190 -8 2 -42
10 -75 19 -98 25 -353 74 -470 91 -22 3 -51 7 -65 10 -14 2 -52 7 -85 10 -33
3 -71 8 -85 10 -14 3 -52 7 -85 10 -33 2 -87 7 -120 10 -33 3 -94 8 -135 11
-82 7 -856 15 -862 9z m8617 -3694 c44 -6 103 -13 130 -17 206 -24 504 -112
699 -204 105 -50 239 -131 229 -139 -4 -4 -46 -37 -93 -72 -46 -35 -96 -74
-110 -85 -14 -12 -68 -57 -120 -100 -124 -103 -441 -419 -559 -559 -52 -60
-105 -123 -118 -138 -121 -140 -443 -602 -542 -779 -49 -87 -55 -88 -81 -16
-13 35 -26 68 -30 73 -4 6 -22 44 -40 85 -164 376 -420 792 -689 1120 -123
150 -166 197 -339 368 -85 84 -153 154 -150 157 13 14 247 118 333 148 170 61
381 115 512 132 21 3 48 7 61 10 23 4 76 10 232 25 108 10 581 4 675 -9z
m-9705 -46 c123 -9 149 -11 185 -18 17 -4 50 -9 75 -12 106 -14 314 -67 440
-113 8 -3 20 -6 25 -8 94 -24 465 -224 490 -264 3 -5 -13 -26 -36 -47 -114
-103 -297 -293 -404 -418 -33 -38 -65 -74 -71 -80 -17 -16 -234 -291 -312
-397 -104 -140 -310 -441 -414 -606 -50 -78 -93 -140 -95 -138 -4 3 -6 1789
-4 2063 1 37 5 51 14 48 6 -2 55 -6 107 -10z m11756 -4395 l0 -1320 -53 83
c-252 396 -546 732 -938 1072 -78 67 -327 223 -492 307 -35 18 -63 38 -63 45
0 19 81 142 178 272 81 108 249 287 357 379 144 124 431 292 627 369 106 41
333 112 363 112 l21 1 0 -1320z m-9626 800 l0 -500 -815 0 c-448 0 -815 2
-815 6 0 9 77 119 130 185 258 322 616 559 1051 698 110 35 192 58 234 66 17
3 66 14 110 24 44 11 86 20 93 20 9 1 12 -105 12 -499z"/>
</g>
</svg>
