<svg xmlns="http://www.w3.org/2000/svg" width="512" height="512" xmlns:v="https://vecta.io/nano"><path d="M284.746 73.348c9.347 6.853 14.618 16.135 20.561 25.885l7.123 11.451 5.715 9.141 9.487 15.186 3.745 5.993 9.338 14.927 19.473 31.383 15.312 24.579 17.568 28.015 5.764 9.219 19.259 30.949 18.002 28.878 11.273 18.034 11.465 18.321 5.642 9.048 6.773 10.695c9.53 14.912 14.364 28.769 11.094 46.535-3.524 12.844-10.772 23.398-22.336 30.168-7.429 3.849-14.237 6.493-22.704 6.503l-3.989.02-4.347-.009-4.645.014-12.744.01c-4.584 0-9.169.011-13.753.02l-26.938.023-21.901.011-62.114.025h-3.382-3.386c-18.104-.001-36.208.018-54.313.047l-55.787.041c-10.437-.001-20.875.005-31.312.026l-26.663.009c-4.532-.007-9.064-.007-13.596.011a1561.29 1561.29 0 0 1-12.464-.005 471.97 471.97 0 0 0-4.492.012c-14.907.104-27.463-3.39-38.728-13.542-10.063-10.54-14.264-23.137-14.094-37.416.49-16.684 9.627-28.874 18.348-42.553l3.059-4.863 5.824-9.215 10.43-16.609 1.91-3.058 3.854-6.174 7.555-12.091 3.745-5.993 9.338-14.927 19.473-31.383 15.312-24.579 17.568-28.015 5.764-9.219L168.5 160.5l19.58-31.43 7.704-12.335 5.638-9.005 6.906-11.18c9.286-15.154 18.326-25.874 36.117-30.855 14.228-2.783 28.106-.353 40.301 7.652z" fill="#fed44e"/><path d="M284.746 73.348c9.347 6.853 14.618 16.135 20.561 25.885l7.123 11.451 5.715 9.141 9.487 15.186 3.745 5.993 9.338 14.927 19.473 31.383 15.312 24.579 17.568 28.015 5.764 9.219 19.259 30.949 18.002 28.878 11.273 18.034 11.465 18.321 5.642 9.048 6.773 10.695c9.53 14.912 14.364 28.769 11.094 46.535-3.524 12.844-10.772 23.398-22.336 30.168-7.429 3.849-14.237 6.493-22.704 6.503l-3.989.02-4.347-.009-4.645.014-12.744.01c-4.584 0-9.169.011-13.753.02l-26.938.023-21.901.011-62.114.025h-3.382-3.386c-18.104-.001-36.208.018-54.313.047l-55.787.041c-10.437-.001-20.875.005-31.312.026l-26.663.009c-4.532-.007-9.064-.007-13.596.011a1561.29 1561.29 0 0 1-12.464-.005 471.97 471.97 0 0 0-4.492.012c-14.907.104-27.463-3.39-38.728-13.542-10.063-10.54-14.264-23.137-14.094-37.416.49-16.684 9.627-28.874 18.348-42.553l3.059-4.863 5.824-9.215 10.43-16.609 1.91-3.058 3.854-6.174 7.555-12.091 3.745-5.993 9.338-14.927 19.473-31.383 15.312-24.579 17.568-28.015 5.764-9.219L168.5 160.5l19.58-31.43 7.704-12.335 5.638-9.005 6.906-11.18c9.286-15.154 18.326-25.874 36.117-30.855 14.228-2.783 28.106-.353 40.301 7.652zm-41.527 29.621c-3.264 4.459-6.128 9.145-9.031 13.844l-4.051 6.52-2.084 3.362L218.5 142l-3.75 6-9.375 15-3.752 6.005-9.338 14.925-19.473 31.383-15.312 24.579-17.582 28.037-5.646 9.021-19.461 31.363L99.5 332.891l-15.602 24.867-8.047 12.859-2.05 3.271-3.879 6.183L65 388l-1.296 2.093C60.988 394.626 60.191 397.819 61 403c1.509 5.469 3.88 8.498 8.38 11.733 5.464 2.643 11.516 2.085 17.461 2.023l4.545.026 12.453-.012 13.444.018 26.322-.008 21.394-.016 3.076.002 6.187.004 58.008-.049 49.767-.014 57.801.008 6.164-.006 3.063-.003 21.367.007 26.041-.027 13.285-.008 12.165-.026 4.397.007c11.326.1 11.326.1 20.681-5.658 3.153-4.431 4.498-8.234 4.375-13.789-.743-4.378-3.248-7.848-5.625-11.523l-1.647-2.642L439 375l-2.941-4.684-5.871-9.289-10.5-16.715-1.912-3.062-3.857-6.179-5.646-9.021-19.461-31.363-15.312-24.579-17.568-28.015-5.764-9.219-19.259-30.949-18.002-28.878L303.5 158l-1.868-2.988-11.412-18.271-5.63-8.995-7.023-11.336-3.191-5.16-1.432-2.365c-3.539-5.694-7.272-9.98-13.943-11.885-6.694-.744-11.31 1.026-15.781 5.969z" fill="#020200"/><path d="M268 187c5.789 5.262 7.488 12.091 8.287 19.754.116 2.86.128 5.696.088 8.558l-.026 3.275c-.185 10.605-1.262 21.074-2.431 31.608-.754 6.819-1.33 13.645-1.867 20.484l-.497 6.193-.713 9.202c-2.079 28.079-2.079 28.079-8.59 34.738-3.983 1.455-7.076 2.112-11.25 1.188-5.442-3.08-6.69-6.128-8.333-11.988-1.288-5.814-1.705-11.711-2.167-17.637l-.363-4.383L239 273l-.209-2.886c-3.01-41.951-3.01-41.951-3.229-60.114l-.067-2.85c.023-6.821 1.764-11.974 6.251-17.174 8.24-6.584 16.635-8.526 26.254-2.977z" fill="#020100"/><path d="M265.375 347.625c4.974 2.874 8.407 7.068 10.625 12.375.953 6.458.54 11.89-3.406 17.207-3.832 4.311-6.854 7.317-12.719 8.336-6.151.263-11.229-.144-16.219-3.949-5.084-4.892-6.967-8.958-7.281-16.094.313-7.115 2.159-11.3 7.352-16.094 6.483-4.802 14.355-5.042 21.648-1.781z" fill="#020200"/><path d="M229 72l2 1-15 15c0-4.911 3.695-7.61 7-11 1.946-1.765 3.927-3.382 6-5z" fill="#362e11"/></svg>